<svg xmlns="http://www.w3.org/2000/svg" version="1.1" xmlns:xlink="http://www.w3.org/1999/xlink" xmlns:svgjs="http://svgjs.com/svgjs" width="1440" height="560" preserveAspectRatio="none" viewBox="0 0 1440 560"><g mask="url(&quot;#SvgjsMask1006&quot;)" fill="none"><rect width="1440" height="560" x="0" y="0" fill="rgba(238, 238, 238, 1)"></rect><path d="M-106.26 184.25C8 190.07 67.98 375.88 301.8 391.45 535.61 407.02 590.14 635.18 709.85 645.25" stroke="rgba(58, 152, 185, 1)" stroke-width="2"></path><path d="M-36.3 118.29C64.89 120.23 119.05 231.71 345.56 252.69 572.06 273.67 598.95 586.07 727.41 612.94" stroke="rgba(58, 152, 185, 1)" stroke-width="2"></path><path d="M-142.44 187.7C-4.73 190.69 152.79 363.61 374.59 378.1 596.38 392.59 546.07 604.17 633.1 622.44" stroke="rgba(58, 152, 185, 1)" stroke-width="2"></path><path d="M-282.02 366.16C-149.65 365.05 29.33 229.16 230.15 231.76 430.98 234.36 383.42 555.77 486.24 601.06" stroke="rgba(58, 152, 185, 1)" stroke-width="2"></path><path d="M-172.46 186.15C-20.41 189.87 92.48 397.76 395.37 404.55 698.26 411.34 812.35 605.97 963.2 609.06" stroke="rgba(58, 152, 185, 1)" stroke-width="2"></path></g><defs><mask id="SvgjsMask1006"><rect width="1440" height="560" fill="#ffffff"></rect></mask></defs></svg>